<?xml version="1.0" standalone="no"?>
<!DOCTYPE svg PUBLIC "-//W3C//DTD SVG 1.1//EN" "http://www.w3.org/Graphics/SVG/1.1/DTD/svg11.dtd">
<svg t="1668939488156" class="icon" viewBox="0 0 1024 1024" version="1.1" xmlns="http://www.w3.org/2000/svg" p-id="4999" width="32" height="32" xmlns:xlink="http://www.w3.org/1999/xlink">
	<path d="M292.71 385.01c-6.46-8.27-18.4-9.73-26.67-3.27-8.27 6.46-9.73 18.4-3.27 26.67l53.76 68.76c3.75 4.79 9.33 7.3 14.98 7.3 4.09 0 8.22-1.32 11.69-4.03 8.27-6.46 9.73-18.4 3.27-26.67l-53.76-68.76zM364.14 338.27c-6.3-8.39-18.21-10.09-26.6-3.8-8.39 6.3-10.09 18.21-3.8 26.6l52.31 69.72c3.73 4.98 9.44 7.6 15.21 7.6 3.97 0 7.97-1.24 11.39-3.8 8.39-6.3 10.09-18.21 3.8-26.6l-52.31-69.72zM437.59 291.18c-5.76-8.77-17.54-11.22-26.31-5.46-8.77 5.76-11.22 17.54-5.46 26.31l47.73 72.75c3.65 5.56 9.72 8.58 15.9 8.58 3.58 0 7.19-1.01 10.41-3.12 8.77-5.76 11.22-17.54 5.46-26.31l-47.73-72.75zM509.77 244.43c-5.44-8.97-17.12-11.83-26.1-6.39-8.97 5.44-11.84 17.13-6.39 26.1l45.15 74.45c3.57 5.89 9.84 9.15 16.26 9.15 3.36 0 6.76-0.89 9.83-2.76 8.97-5.44 11.84-17.13 6.39-26.1l-45.14-74.45zM624.28 273.99l-42.13-76.44c-5.06-9.19-16.62-12.54-25.81-7.47-9.19 5.06-12.53 16.62-7.47 25.81L591 292.34c3.46 6.28 9.96 9.83 16.66 9.83 3.1 0 6.25-0.76 9.15-2.36 9.19-5.07 12.53-16.63 7.47-25.82z" fill="#1296db" p-id="5000" data-spm-anchor-id="a313x.7781069.0.i2" class="selected">
	</path>
	<path d="M885.1 858.81L688.67 566.99l77.51-51.19c26.07-17.22 37.68-49.74 28.88-80.93l-23.58-83.55a24.87 24.87 0 0 0-2.62-7.52L628.75 84.2a24.996 24.996 0 0 0-35.78-8.98l-447.1 295.26c-5.85 3.87-9.81 10.01-10.91 16.94s0.76 14 5.13 19.49L323.82 637.7c1.69 2.13 3.67 3.9 5.83 5.32l67.64 54.53c13.84 11.16 30.46 16.83 46.96 16.83 13.57 0 27.05-3.84 38.82-11.61l79.01-52.18 196.65 291.32c4.82 7.15 12.71 11.02 20.74 11.02 4.67 0 9.39-1.31 13.6-4.04l84.92-55.15c5.62-3.65 9.54-9.4 10.88-15.97s-0.03-13.4-3.77-18.96zM597.73 131.99l116.08 215.06-365.38 241.29-152.21-191.2 401.51-265.15zM455.51 661.04c-7.84 5.18-18.62 4.2-26.84-2.42l-42.86-34.56 346.18-228.61 14.95 52.99c2.87 10.16-0.48 20.46-8.31 25.63L455.51 661.04z m330.91 232.54L604.19 623.61l43-28.69 182.23 270.73-43 27.93z" fill="#3F3F3F" p-id="5001">
	</path>
</svg>
