<svg xmlns="http://www.w3.org/2000/svg" width="23" height="23" viewBox="0 0 23 23">
  <path id="book" d="M760.5-1733a11.425,11.425,0,0,1-8.132-3.368A11.423,11.423,0,0,1,749-1744.5a11.425,11.425,0,0,1,3.368-8.132A11.425,11.425,0,0,1,760.5-1756a11.425,11.425,0,0,1,8.132,3.368A11.425,11.425,0,0,1,772-1744.5a11.423,11.423,0,0,1-3.368,8.131A11.426,11.426,0,0,1,760.5-1733Zm0-21.3a9.808,9.808,0,0,0-9.8,9.8,9.808,9.808,0,0,0,9.8,9.8,9.808,9.808,0,0,0,9.8-9.8A9.808,9.808,0,0,0,760.5-1754.3Zm.769,15.624h0v-8.7a2.172,2.172,0,0,1,1.768-1.687H766.8v9.316h-3.523C762.731-1739.746,761.329-1739.427,761.269-1738.672Zm-1.112,0c-.06-.754-1.463-1.074-2.011-1.074h-3.523v-9.316h3.769a1.827,1.827,0,0,1,1.185.608,1.784,1.784,0,0,1,.583,1.08v8.7Z" transform="translate(-749 1756)" fill="rgba(60,60,67,0.7)"/>
</svg>
