<svg xmlns="http://www.w3.org/2000/svg" width="23" height="23" viewBox="0 0 23 23">
  <g id="home_purplw" transform="translate(34 -400.999)">
    <path id="Exclusion_2" data-name="Exclusion 2" d="M11.5,23A11.5,11.5,0,0,1,3.368,3.368,11.5,11.5,0,1,1,19.632,19.632,11.425,11.425,0,0,1,11.5,23Zm-1.108-9.81h2.4v3.595a.6.6,0,0,0,.6.6h2.4a.6.6,0,0,0,.6-.6V11.991h1.5a.3.3,0,0,0,.177-.54L12.019,6.182A.611.611,0,0,0,11.59,6a.6.6,0,0,0-.426.178L5.122,11.451a.3.3,0,0,0,.177.54H6.8v4.793a.6.6,0,0,0,.6.6h2.4a.6.6,0,0,0,.6-.6V13.191Z" transform="translate(-34 400.999)" fill="#8134af"/>
  </g>
</svg>
