<svg xmlns="http://www.w3.org/2000/svg" width="23" height="23" viewBox="0 0 23 23">
  <path id="个人" d="M11.5,23A11.5,11.5,0,0,1,3.368,3.368,11.5,11.5,0,1,1,19.632,19.632,11.424,11.424,0,0,1,11.5,23Zm0-21.3A9.762,9.762,0,0,0,1.768,12.59c.007.069.019.137.03.2V12.8c.006.038.013.076.018.114.033.221.074.482.132.742.019.085.042.17.062.245l.026.1c.07.261.139.49.212.7.035.1.073.2.111.3.091.238.2.483.316.729l.03.063,0,.008c.023.048.045.1.069.144a9.625,9.625,0,0,0,.492.854l0,.009a.229.229,0,0,0,.015.024,9.776,9.776,0,0,0,16.417,0l.018-.03a9.8,9.8,0,0,0,.493-.857c.026-.05.049-.1.073-.152l.029-.062c.114-.236.22-.48.316-.728.041-.106.077-.2.112-.3.075-.216.144-.445.212-.7l.024-.09.005-.02c.018-.068.041-.152.059-.232.049-.22.092-.464.132-.744.006-.037.012-.074.018-.111V12.8c.011-.068.023-.136.031-.206A9.763,9.763,0,0,0,11.5,1.7Zm0,18.352a8.51,8.51,0,0,1-5.955-2.424,6.5,6.5,0,0,1,11.911,0A8.511,8.511,0,0,1,11.5,20.056Zm0-6.455A3.6,3.6,0,1,1,15.1,10,3.607,3.607,0,0,1,11.5,13.6Z" fill="rgba(60,60,67,0.7)"/>
</svg>
