<svg xmlns="http://www.w3.org/2000/svg" width="23" height="22.999" viewBox="0 0 23 22.999">
  <path id="个人_2_1_" data-name="个人 (2) (1)" d="M27.173,23.8c.211-.326.4-.66.579-1.005.042-.083.08-.167.121-.252q.2-.419.371-.855c.045-.118.089-.236.131-.355.093-.271.175-.544.249-.822.035-.134.073-.266.1-.4.064-.287.113-.579.156-.874.019-.127.044-.25.058-.378a11.653,11.653,0,0,0,.076-1.28A11.5,11.5,0,1,0,6.092,18.859c.015.128.039.252.058.38.044.294.092.585.156.871.031.137.068.269.1.4.074.278.156.553.249.822.041.119.084.237.129.355.112.291.237.576.371.855.041.084.079.169.121.252a11.19,11.19,0,0,0,.577,1,.329.329,0,0,0,.023.038,11.476,11.476,0,0,0,19.272,0ZM17.516,11.588a4.229,4.229,0,1,1-4.227,4.227A4.232,4.232,0,0,1,17.516,11.588Zm-6.991,13.19a7.626,7.626,0,0,1,13.983,0,10.011,10.011,0,0,1-13.983,0Z" transform="translate(-6.016 -6.08)" fill="#8134af"/>
</svg>
