<svg xmlns="http://www.w3.org/2000/svg" width="23" height="23" viewBox="0 0 23 23">
  <path id="推荐" d="M-438.5-2078a11.424,11.424,0,0,1-8.132-3.368A11.424,11.424,0,0,1-450-2089.5a11.424,11.424,0,0,1,3.368-8.132A11.424,11.424,0,0,1-438.5-2101a11.424,11.424,0,0,1,8.132,3.368A11.424,11.424,0,0,1-427-2089.5a11.424,11.424,0,0,1-3.368,8.132A11.424,11.424,0,0,1-438.5-2078Zm0-21.3a9.733,9.733,0,0,0-6.928,2.87,9.731,9.731,0,0,0-2.869,6.927,9.731,9.731,0,0,0,2.869,6.927,9.733,9.733,0,0,0,6.928,2.87,9.729,9.729,0,0,0,6.927-2.87,9.729,9.729,0,0,0,2.87-6.927,9.729,9.729,0,0,0-2.87-6.927A9.729,9.729,0,0,0-438.5-2099.3Zm-5.229,15.552-.6,0a.515.515,0,0,1-.56-.553c0-1.9,0-3.835,0-5.738a.513.513,0,0,1,.54-.557c.223-.005.461-.008.708-.008s.472,0,.708.007a.522.522,0,0,1,.554.586c0,.568,0,1.145,0,1.7v3.918c0,.449-.189.641-.631.642h-.721Zm8.893,0h-6.749c-.02,0-.038,0-.064,0l-.054,0c0-.024,0-.046-.005-.069v-.017c0-.037-.006-.079-.006-.119l0-1.5v-.048c0-1.232,0-2.766,0-4.387v-.547c0-.149.04-.2.186-.219a2.967,2.967,0,0,0,2.387-2.615c0-.048.007-.1.01-.143v-.006a2.487,2.487,0,0,1,.166-.874,1.182,1.182,0,0,1,1.1-.721,1.3,1.3,0,0,1,.879.338,1.539,1.539,0,0,1,.466.893,5.949,5.949,0,0,1-.106,2.648.214.214,0,0,0-.007.049l0,.025c0,.01,0,.021,0,.034h1.332c.488,0,.867,0,1.227.005a1.9,1.9,0,0,1,.552.081,1.325,1.325,0,0,1,.847,1.487c-.135.636-.277,1.283-.414,1.909l0,.012-.031.143,0,.015,0,.008c-.182.829-.346,1.576-.5,2.322a1.576,1.576,0,0,1-.557,1.046A1.114,1.114,0,0,1-434.835-2083.745Zm2.729-8.346a.559.559,0,0,1-.2-.05l-.271-.112-.021-.01-.022-.009-.024-.01c-.239-.1-.485-.2-.73-.294a.348.348,0,0,0-.121-.02.38.38,0,0,0-.132.022c-.23.087-.462.182-.686.274l-.093.038-.011,0-.166.069-.056.023-.058.024a.568.568,0,0,1-.2.05.147.147,0,0,1-.111-.042.356.356,0,0,1-.055-.26l.02-.245v-.01c.022-.278.045-.562.073-.843a.4.4,0,0,0-.1-.344c-.2-.22-.4-.46-.564-.653l0,0-.186-.22c-.082-.1-.113-.177-.092-.241s.092-.111.213-.141c.423-.105.8-.194,1.14-.271a.36.36,0,0,0,.251-.181c.2-.338.4-.672.605-1l0-.006c.063-.1.13-.154.2-.154s.138.053.2.157.149.239.222.359l0,.007c.123.2.263.426.4.642a.42.42,0,0,0,.221.16c.231.063.471.119.683.169l.089.021c.117.028.244.058.366.089s.194.08.215.146-.01.152-.093.252l-.165.195-.083.1-.018.021c-.148.174-.316.371-.476.572a.442.442,0,0,0-.093.274c.014.3.039.606.066.919l.018.216a.357.357,0,0,1-.051.271A.15.15,0,0,1-432.107-2092.091Z" transform="translate(450 2101)" fill="rgba(60,60,67,0.7)"/>
</svg>
