<svg xmlns="http://www.w3.org/2000/svg" width="23" height="23" viewBox="0 0 23 23">
  <g id="推荐_紫色" data-name="推荐 紫色" transform="translate(0)">
    <circle id="Ellipse_9" data-name="Ellipse 9" cx="11.5" cy="11.5" r="11.5" transform="translate(0)" fill="#8134af"/>
    <path id="推荐" d="M106.726,125.9c1.018,0,2.012-.005,3,0a2.215,2.215,0,0,1,.649.1,1.551,1.551,0,0,1,.994,1.744c-.366,1.727-.758,3.448-1.121,5.176a1.839,1.839,0,0,1-.653,1.228,1.291,1.291,0,0,1-.769.3q-3.962,0-7.923,0c-.037,0-.075-.005-.139-.01,0-.081-.014-.161-.014-.24,0-2.215.007-4.431.007-6.962,0,0,0-.323,0-.642,0-.167.041-.228.218-.257a3.473,3.473,0,0,0,2.8-3.069,3.491,3.491,0,0,1,.207-1.2,1.456,1.456,0,0,1,2.328-.448,1.812,1.812,0,0,1,.547,1.048,6.936,6.936,0,0,1-.124,3.109A.975.975,0,0,0,106.726,125.9Zm-6.75,1.193a.615.615,0,0,0-.65-.688c-.553-.011-1.108-.012-1.661,0a.6.6,0,0,0-.634.654q-.006,3.368,0,6.736a.6.6,0,0,0,.658.649c.516,0,1.032,0,1.548,0s.74-.224.741-.754q0-1.639,0-3.277C99.977,129.3,99.979,128.2,99.976,127.089Zm9.015-2.5c.418-.171.834-.347,1.256-.508a.455.455,0,0,1,.3,0c.422.161.837.339,1.255.511.327.134.459.037.43-.312-.037-.444-.079-.887-.1-1.332a.523.523,0,0,1,.11-.321c.282-.354.581-.693.871-1.039.195-.232.147-.394-.144-.466-.445-.111-.893-.208-1.336-.328a.489.489,0,0,1-.258-.188c-.256-.389-.493-.789-.741-1.183-.153-.244-.323-.246-.473,0-.242.39-.485.779-.716,1.175a.418.418,0,0,1-.295.213q-.671.152-1.338.318c-.287.071-.333.224-.142.45.292.345.58.694.884,1.029a.471.471,0,0,1,.119.4c-.043.43-.074.86-.11,1.29C108.545,124.634,108.668,124.719,108.99,124.587Z" transform="translate(-93.028 -116.188)" fill="#fff"/>
  </g>
</svg>
