<svg xmlns="http://www.w3.org/2000/svg" width="23" height="23" viewBox="0 0 23 23">
  <g id="search-purple" data-name="发现 紫色" transform="translate(-71.202 -734)">
    <path id="发现" d="M72.94,63.716a11.5,11.5,0,1,0,11.5,11.5A11.518,11.518,0,0,0,72.94,63.716Zm5.222,6.865-2.347,7.158a.709.709,0,0,1-.411.411L68.246,80.5c-.176.059-.411.059-.469-.059a.355.355,0,0,1-.059-.469l2.347-7.158a.709.709,0,0,1,.411-.411l7.158-2.347c.176-.059.411-.059.469.059A.355.355,0,0,1,78.162,70.58Z" transform="translate(9.762 670.284)" fill="#8134af"/>
    <path id="Path_1" data-name="Path 1" d="M440.942,441.458a1.76,1.76,0,1,0,0,3.52,1.729,1.729,0,0,0,1.76-1.76A1.765,1.765,0,0,0,440.942,441.458Z" transform="translate(-358.225 302.282)" fill="#8134af"/>
  </g>
</svg>