<svg xmlns="http://www.w3.org/2000/svg" width="9.542" height="12.28" viewBox="0 0 9.542 12.28">
  <path id="fire" d="M167.379,76.144a2.326,2.326,0,0,1-1.173-1.909c-.039-1.529,1.023-2.279,1.652-3.3a3.339,3.339,0,0,0,.654-2.387,3.238,3.238,0,0,1,1.188,1.992,3.632,3.632,0,0,1,.123,1.366,6.4,6.4,0,0,1-.546,2.1s.832-.177,1.064-1.692a2.641,2.641,0,0,1,.778,1.569,2.465,2.465,0,0,1-1.474,2.4,4.773,4.773,0,0,0,3.152-2.729,6.764,6.764,0,0,0,.286-3.343,4.952,4.952,0,0,1,.354-2.306,3.012,3.012,0,0,0-1.542,1.337,4.073,4.073,0,0,0-.423,1.214,4.548,4.548,0,0,0-.355-1.814c-.422-1.146-.805-1.555-1.038-2.4A3.247,3.247,0,0,1,170.449,64a5.918,5.918,0,0,0-3.847,2.8,4.43,4.43,0,0,0-.627,3.275,3.144,3.144,0,0,1-.682-1.01,2.667,2.667,0,0,1-.18-1.118,4.958,4.958,0,0,0-.966,4.68A5.313,5.313,0,0,0,167.379,76.144Z" transform="translate(-163.896 -64)" fill="#8a8a8e"/>
</svg>


