<svg xmlns="http://www.w3.org/2000/svg" width="23" height="23" viewBox="0 0 23 23">
  <path id="home" d="M748.5-1331a11.425,11.425,0,0,1-8.132-3.368A11.425,11.425,0,0,1,737-1342.5a11.423,11.423,0,0,1,3.368-8.131A11.425,11.425,0,0,1,748.5-1354a11.424,11.424,0,0,1,8.131,3.368A11.424,11.424,0,0,1,760-1342.5a11.426,11.426,0,0,1-3.368,8.132A11.424,11.424,0,0,1,748.5-1331Zm0-21.295a9.728,9.728,0,0,0-6.926,2.869,9.728,9.728,0,0,0-2.869,6.926,9.73,9.73,0,0,0,2.869,6.925,9.728,9.728,0,0,0,6.926,2.869,9.727,9.727,0,0,0,6.926-2.869,9.73,9.73,0,0,0,2.869-6.925,9.728,9.728,0,0,0-2.869-6.926A9.727,9.727,0,0,0,748.5-1352.3Zm3.649,14.807h-2.041a.511.511,0,0,1-.511-.51v-3.062h-2.039V-1338a.511.511,0,0,1-.51.51H745a.511.511,0,0,1-.511-.51v-4.082h-1.275a.255.255,0,0,1-.255-.256.252.252,0,0,1,.1-.2l5.147-4.492a.514.514,0,0,1,.363-.151.519.519,0,0,1,.365.155l5.143,4.488a.251.251,0,0,1,.1.2.256.256,0,0,1-.256.256h-1.276V-1338A.51.51,0,0,1,752.149-1337.488Z" transform="translate(-737 1354)" fill="#76767b"/>
</svg>
