<svg xmlns="http://www.w3.org/2000/svg" width="23" height="23" viewBox="0 0 23 23">
  <path id="search" d="M-438.5-2078a11.425,11.425,0,0,1-8.132-3.368A11.425,11.425,0,0,1-450-2089.5a11.425,11.425,0,0,1,3.368-8.132A11.426,11.426,0,0,1-438.5-2101a11.425,11.425,0,0,1,8.132,3.368A11.424,11.424,0,0,1-427-2089.5a11.425,11.425,0,0,1-3.368,8.132A11.425,11.425,0,0,1-438.5-2078Zm0-21.3a9.808,9.808,0,0,0-9.8,9.8,9.807,9.807,0,0,0,9.8,9.8,9.807,9.807,0,0,0,9.8-9.8,9.6,9.6,0,0,0-2.8-6.89A9.769,9.769,0,0,0-438.5-2099.3Zm-4.2,14.327c-.1,0-.176-.03-.2-.083a.3.3,0,0,1-.05-.4l2-6.1a.606.606,0,0,1,.35-.35l6.1-2a.623.623,0,0,1,.2-.033c.1,0,.174.03.2.083a.3.3,0,0,1,.05.4l-2,6.1a.605.605,0,0,1-.35.35l-6.1,2A.644.644,0,0,1-442.7-2084.969Zm4.209-6.03a1.5,1.5,0,0,0-1.5,1.5,1.5,1.5,0,0,0,1.5,1.5,1.466,1.466,0,0,0,1.5-1.5A1.5,1.5,0,0,0-438.487-2091Z" transform="translate(450 2101)" fill="#3c3c43"/>
</svg>
